<?xml version="1.0" encoding="UTF-8" standalone="no"?>
<!-- Created with Inkscape (http://www.inkscape.org/) -->

<svg
   width="450"
   height="450"
   viewBox="0 0 119.06252 119.06251"
   version="1.1"
   id="svg5"
   sodipodi:docname="01d2.svg"
   inkscape:version="1.1.1 (3bf5ae0d25, 2021-09-20)"
   xmlns:inkscape="http://www.inkscape.org/namespaces/inkscape"
   xmlns:sodipodi="http://sodipodi.sourceforge.net/DTD/sodipodi-0.dtd"
   xmlns="http://www.w3.org/2000/svg"
   xmlns:svg="http://www.w3.org/2000/svg">
  <sodipodi:namedview
     id="namedview7"
     pagecolor="#505050"
     bordercolor="#ffffff"
     borderopacity="1"
     inkscape:pageshadow="0"
     inkscape:pageopacity="0"
     inkscape:pagecheckerboard="1"
     inkscape:document-units="mm"
     showgrid="false"
     inkscape:zoom="1.4772208"
     inkscape:cx="183.79108"
     inkscape:cy="210.86896"
     inkscape:window-width="1530"
     inkscape:window-height="1011"
     inkscape:window-x="0"
     inkscape:window-y="0"
     inkscape:window-maximized="0"
     inkscape:current-layer="layer1"
     inkscape:object-nodes="true"
     units="px"
     width="50px">
    <inkscape:grid
       type="xygrid"
       id="grid2013" />
  </sodipodi:namedview>
  <defs
     id="defs2">
    <inkscape:path-effect
       effect="bspline"
       id="path-effect1359"
       is_visible="true"
       lpeversion="1"
       weight="33.333333"
       steps="2"
       helper_size="0"
       apply_no_weight="true"
       apply_with_weight="true"
       only_selected="false" />
  </defs>
  <g
     inkscape:label="Lager 1"
     inkscape:groupmode="layer"
     id="layer1">
    <path
       id="rect970"
       style="opacity:1;fill:#ffffff;stroke-width:15.5658"
       d="m 57.904152,10.666602 v 21.070023 a 27.881892,27.005605 0 0 1 2.185724,-0.0865 27.881892,27.005605 0 0 1 2.185722,0.08358 V 10.666602 Z m 14.570193,12.295058 -4.09495,9.910103 a 27.881892,27.005605 0 0 1 4.076484,1.580738 l 4.058506,-9.821663 z m -24.829681,0.02089 -4.037125,1.676467 4.077945,9.822148 a 27.881892,27.005605 0 0 1 4.072598,-1.592885 z m -19.942659,0.194378 -3.090529,3.091015 14.559502,14.559502 a 27.881892,27.005605 0 0 1 3.186258,-2.995286 z m 64.775741,0 -14.646969,14.646971 a 27.881892,27.005605 0 0 1 3.188688,2.992855 L 95.568277,26.267943 Z m 1.608923,18.99655 -9.339133,3.87774 a 27.881892,27.005605 0 0 1 1.76928,3.99825 l 9.245833,-3.838865 z m -68.021284,0.05783 -1.669177,4.039555 9.265755,3.82866 A 27.881892,27.005605 0 0 1 35.426869,46.09933 Z M 12.101149,56.470091 v 4.370961 h 20.204093 a 27.881892,27.005605 0 0 1 -0.09719,-2.185724 27.881892,27.005605 0 0 1 0.09719,-2.185237 z m 75.778221,0 a 27.881892,27.005605 0 0 1 0.09233,2.185237 27.881892,27.005605 0 0 1 -0.09718,2.185724 h 20.20409 v -4.370961 z m -1.361584,10.741533 a 27.881892,27.005605 0 0 1 -1.764905,4.000193 l 9.361486,3.868022 1.669176,-4.039555 z m -52.839788,0.04373 -9.260895,3.845182 1.67598,4.037125 9.356141,-3.885028 a 27.881892,27.005605 0 0 1 -1.771226,-3.997279 z m 5.49298,9.22834 -14.559502,14.559502 3.090529,3.091015 14.655231,-14.655231 a 27.881892,27.005605 0 0 1 -3.186258,-2.995286 z m 41.837797,0 a 27.881892,27.005605 0 0 1 -3.186258,2.995286 l 14.655229,14.655231 3.090531,-3.091015 z m -8.514992,6.346275 a 27.881892,27.005605 0 0 1 -4.071627,1.592885 l 4.11293,9.905243 4.037127,-1.675981 z m -24.766996,0.02089 -4.061422,9.828951 4.04004,1.669664 4.095925,-9.912045 a 27.881892,27.005605 0 0 1 -4.074543,-1.58657 z m 10.177365,2.723651 v 21.07002 h 4.371446 V 85.574518 a 27.881892,27.005605 0 0 1 -2.185722,0.0865 27.881892,27.005605 0 0 1 -2.185724,-0.0865 z" />
    <ellipse
       style="opacity:1;fill:none;stroke:#ffffff;stroke-width:4.12338;stroke-miterlimit:4;stroke-dasharray:none;stroke-opacity:1"
       id="ellipse1823"
       cx="60.089882"
       cy="58.655567"
       rx="21.882017"
       ry="21.194298" />
  </g>
</svg>
