<?xml version="1.0" encoding="UTF-8" standalone="no"?>
<!-- Created with Inkscape (http://www.inkscape.org/) -->

<svg
   width="450"
   height="450"
   viewBox="0 0 119.06252 119.06251"
   version="1.1"
   id="svg5"
   sodipodi:docname="01d.svg"
   inkscape:version="1.1.1 (3bf5ae0d25, 2021-09-20)"
   xmlns:inkscape="http://www.inkscape.org/namespaces/inkscape"
   xmlns:sodipodi="http://sodipodi.sourceforge.net/DTD/sodipodi-0.dtd"
   xmlns="http://www.w3.org/2000/svg"
   xmlns:svg="http://www.w3.org/2000/svg">
  <sodipodi:namedview
     id="namedview7"
     pagecolor="#505050"
     bordercolor="#ffffff"
     borderopacity="1"
     inkscape:pageshadow="0"
     inkscape:pageopacity="0"
     inkscape:pagecheckerboard="1"
     inkscape:document-units="mm"
     showgrid="false"
     inkscape:zoom="0.8762222"
     inkscape:cx="142.08725"
     inkscape:cy="188.87903"
     inkscape:window-width="1530"
     inkscape:window-height="1011"
     inkscape:window-x="-7"
     inkscape:window-y="1"
     inkscape:window-maximized="0"
     inkscape:current-layer="layer1"
     inkscape:object-nodes="true"
     units="px"
     width="50px">
    <inkscape:grid
       type="xygrid"
       id="grid2013" />
  </sodipodi:namedview>
  <defs
     id="defs2">
    <inkscape:path-effect
       effect="bspline"
       id="path-effect1359"
       is_visible="true"
       lpeversion="1"
       weight="33.333333"
       steps="2"
       helper_size="0"
       apply_no_weight="true"
       apply_with_weight="true"
       only_selected="false" />
  </defs>
  <g
     inkscape:label="Lager 1"
     inkscape:groupmode="layer"
     id="layer1">
    <g
       inkscape:label="Lager 1"
       id="layer1-4"
       transform="matrix(1.4940197,0,0,1.4940197,-94.291442,-99.493163)">
      <ellipse
         style="opacity:1;fill:none;fill-opacity:1;stroke:#ffffff;stroke-width:3.33136;stroke-miterlimit:4;stroke-dasharray:none;stroke-opacity:1"
         id="ellipse24587"
         cx="103.32976"
         cy="105.8691"
         rx="16.004326"
         ry="15.470847" />
      <path
         id="rect24611"
         style="opacity:1;fill:#ffffff;fill-opacity:1;stroke:#ffffff;stroke-width:0.0170643;stroke-miterlimit:4;stroke-dasharray:none;stroke-opacity:1"
         d="m 100.89504,74.546627 v 13.023496 a 19.216564,18.576011 0 0 1 2.50889,-0.168466 19.216564,18.576011 0 0 1 1.71411,0.07545 v -12.93048 z m -19.079972,7.903393 -2.985864,2.985865 9.294523,9.294524 a 19.216564,18.576011 0 0 1 2.969329,-3.002402 z m 42.383462,0 -8.92245,8.922454 a 19.216564,18.576011 0 0 1 3.05924,2.912483 l 8.84907,-8.849072 z m -13.90923,1.176673 -1.73995,4.454509 a 19.216564,18.576011 0 0 1 2.98535,1.066602 l 1.70636,-4.36821 z m -15.494663,0.315225 -2.902148,1.272275 2.022615,4.615223 a 19.216564,18.576011 0 0 1 2.895431,-1.288294 z m 29.625583,11.571388 -4.03645,1.768885 a 19.216564,18.576011 0 0 1 1.27589,2.900599 l 4.03283,-1.767336 z m -43.261443,0.880049 -1.152901,2.951242 4.832779,1.887743 a 19.216564,18.576011 0 0 1 1.097608,-2.972948 z M 70.92581,104.51637 v 4.22249 h 13.475147 a 19.216564,18.576011 0 0 1 -0.213942,-2.76108 19.216564,18.576011 0 0 1 0.06201,-1.46141 z m 51.63457,0 a 19.216564,18.576011 0 0 1 0.06,1.46141 19.216564,18.576011 0 0 1 -0.21342,2.76108 h 12.68087 v -4.22249 z m -1.04799,7.6383 a 19.216564,18.576011 0 0 1 -1.33946,2.87837 l 4.68189,1.82883 1.1529,-2.95124 z m -36.059817,0.43615 -5.131469,2.24895 1.272272,2.90215 5.27513,-2.312 a 19.216564,18.576011 0 0 1 -1.415933,-2.8391 z m 3.261299,5.34386 -9.884668,9.88466 2.985864,2.98587 10.01386,-10.01386 a 19.216564,18.576011 0 0 1 -3.115056,-2.85667 z m 29.005978,0.42013 a 19.216564,18.576011 0 0 1 -3.20497,2.76675 l 9.68365,9.68365 2.98586,-2.98587 z m -5.94124,4.3403 a 19.216564,18.576011 0 0 1 -2.97708,1.10226 l 2.41743,5.51594 2.90215,-1.27228 z m -16.748846,5.2e-4 -2.257742,5.78 2.951758,1.1529 2.277896,-5.83271 a 19.216564,18.576011 0 0 1 -2.971912,-1.10019 z m 5.865276,1.6893 v 14.32367 h 4.223 v -14.23737 a 19.216564,18.576011 0 0 1 -1.71411,0.0822 19.216564,18.576011 0 0 1 -2.50889,-0.16846 z" />
    </g>
  </g>
</svg>
