<?xml version="1.0" encoding="UTF-8" standalone="no"?>
<!-- Created with Inkscape (http://www.inkscape.org/) -->

<svg
   width="400"
   height="450"
   viewBox="0 0 105.83335 119.06251"
   version="1.1"
   id="svg5"
   sodipodi:docname="03d.svg"
   inkscape:version="1.1.1 (3bf5ae0d25, 2021-09-20)"
   xmlns:inkscape="http://www.inkscape.org/namespaces/inkscape"
   xmlns:sodipodi="http://sodipodi.sourceforge.net/DTD/sodipodi-0.dtd"
   xmlns="http://www.w3.org/2000/svg"
   xmlns:svg="http://www.w3.org/2000/svg">
  <sodipodi:namedview
     id="namedview7"
     pagecolor="#505050"
     bordercolor="#ffffff"
     borderopacity="1"
     inkscape:pageshadow="0"
     inkscape:pageopacity="0"
     inkscape:pagecheckerboard="1"
     inkscape:document-units="mm"
     showgrid="false"
     inkscape:zoom="0.8762222"
     inkscape:cx="142.08725"
     inkscape:cy="188.87903"
     inkscape:window-width="1530"
     inkscape:window-height="1011"
     inkscape:window-x="-7"
     inkscape:window-y="1"
     inkscape:window-maximized="0"
     inkscape:current-layer="layer1"
     inkscape:object-nodes="true"
     units="px"
     width="50px">
    <inkscape:grid
       type="xygrid"
       id="grid2013" />
  </sodipodi:namedview>
  <defs
     id="defs2">
    <inkscape:path-effect
       effect="bspline"
       id="path-effect1359"
       is_visible="true"
       lpeversion="1"
       weight="33.333333"
       steps="2"
       helper_size="0"
       apply_no_weight="true"
       apply_with_weight="true"
       only_selected="false" />
  </defs>
  <g
     inkscape:label="Lager 1"
     inkscape:groupmode="layer"
     id="layer1">
    <path
       id="path2385"
       style="fill:none;fill-opacity:1;stroke:#ffffff;stroke-width:4;stroke-miterlimit:4;stroke-dasharray:none;stroke-opacity:1"
       d="m 49.195909,33.978767 a 21.629686,19.843749 0 0 0 -21.616252,19.516634 14.816666,13.096875 0 0 0 -13.374893,13.02712 14.816666,13.096875 0 0 0 14.552083,13.08809 v 0.009 h 0.264583 47.736621 a 14.816666,13.096875 0 0 0 0.031,10e-4 14.816666,13.096875 0 0 0 14.81667,-13.09688 14.816666,13.096875 0 0 0 -14.81667,-13.09687 14.816666,13.096875 0 0 0 -5.99343,1.12913 21.629686,19.843749 0 0 0 0.03,-0.73331 21.629686,19.843749 0 0 0 -21.629692,-19.843754 z" />
  </g>
</svg>
