<?xml version="1.0" encoding="UTF-8" standalone="no"?>
<!-- Created with Inkscape (http://www.inkscape.org/) -->

<svg
   width="475"
   height="450"
   viewBox="0 0 125.6771 119.06251"
   version="1.1"
   id="svg5"
   sodipodi:docname="09d.svg"
   inkscape:version="1.1.1 (3bf5ae0d25, 2021-09-20)"
   xmlns:inkscape="http://www.inkscape.org/namespaces/inkscape"
   xmlns:sodipodi="http://sodipodi.sourceforge.net/DTD/sodipodi-0.dtd"
   xmlns="http://www.w3.org/2000/svg"
   xmlns:svg="http://www.w3.org/2000/svg">
  <sodipodi:namedview
     id="namedview7"
     pagecolor="#505050"
     bordercolor="#ffffff"
     borderopacity="1"
     inkscape:pageshadow="0"
     inkscape:pageopacity="0"
     inkscape:pagecheckerboard="1"
     inkscape:document-units="mm"
     showgrid="false"
     inkscape:zoom="0.8762222"
     inkscape:cx="142.08725"
     inkscape:cy="188.87903"
     inkscape:window-width="1530"
     inkscape:window-height="1011"
     inkscape:window-x="-7"
     inkscape:window-y="1"
     inkscape:window-maximized="0"
     inkscape:current-layer="layer1"
     inkscape:object-nodes="true"
     units="px"
     width="50px">
    <inkscape:grid
       type="xygrid"
       id="grid2013" />
  </sodipodi:namedview>
  <defs
     id="defs2">
    <inkscape:path-effect
       effect="bspline"
       id="path-effect1359"
       is_visible="true"
       lpeversion="1"
       weight="33.333333"
       steps="2"
       helper_size="0"
       apply_no_weight="true"
       apply_with_weight="true"
       only_selected="false" />
  </defs>
  <g
     inkscape:label="Lager 1"
     inkscape:groupmode="layer"
     id="layer1">
    <g
       inkscape:label="Lager 1"
       id="layer1-8"
       transform="translate(-31.273572,-54.596205)">
      <path
         id="path5208-6"
         style="opacity:1;fill:none;fill-opacity:1;stroke:#ffffff;stroke-width:4;stroke-miterlimit:4;stroke-dasharray:none;stroke-opacity:1"
         d="m 80.499481,87.841685 a 21.629686,19.843749 0 0 0 -21.616252,19.516635 14.816666,13.096875 0 0 0 -13.374893,13.02711 14.816666,13.096875 0 0 0 14.552083,13.08809 v 0.009 h 0.264583 47.736618 a 14.816666,13.096875 0 0 0 0.031,0.001 14.816666,13.096875 0 0 0 14.81667,-13.09687 14.816666,13.096875 0 0 0 -14.81667,-13.09688 14.816666,13.096875 0 0 0 -5.99343,1.12913 21.629686,19.843749 0 0 0 0.03,-0.73328 21.629686,19.843749 0 0 0 -21.629684,-19.843754 z" />
      <path
         id="path5208-8-1"
         style="opacity:1;fill:#ffffff;fill-opacity:1;stroke:#ffffff;stroke-width:4;stroke-miterlimit:4;stroke-dasharray:none;stroke-opacity:1"
         d="m 101.37262,78.788668 a 21.629686,19.843749 0 0 0 -18.243848,9.200473 21.629686,19.843749 0 0 1 19.000388,19.696469 21.629686,19.843749 0 0 1 -0.03,0.73329 14.816666,13.096875 0 0 1 5.99343,-1.12913 14.816666,13.096875 0 0 1 14.81667,13.09687 14.816666,13.096875 0 0 1 -0.73949,4.04265 h 6.76496 a 14.816666,13.096875 0 0 0 0.031,0.001 14.816666,13.096875 0 0 0 14.81666,-13.09688 14.816666,13.096875 0 0 0 -14.81666,-13.096873 14.816666,13.096875 0 0 0 -5.99344,1.129128 21.629686,19.843749 0 0 0 0.03,-0.733287 21.629686,19.843749 0 0 0 -21.62969,-19.84375 z" />
      <path
         id="rect8358-1"
         style="fill:none;fill-opacity:1;stroke:#ffffff;stroke-width:3;stroke-miterlimit:4;stroke-dasharray:none;stroke-opacity:1"
         d="m 107.02174,142.60521 -6.85694,9.21907 0.76739,0.57051 6.85695,-9.21856 z" />
      <path
         id="rect8477"
         style="opacity:1;fill:none;fill-opacity:1;stroke:#ffffff;stroke-width:3;stroke-miterlimit:4;stroke-dasharray:none;stroke-opacity:1"
         d="m 80.618059,139.22406 -9.811805,13.19144 0.797885,0.59325 9.811803,-13.19145 z" />
      <path
         id="path9037"
         style="fill:none;fill-opacity:1;stroke:#ffffff;stroke-width:3;stroke-miterlimit:4;stroke-dasharray:none;stroke-opacity:1"
         d="m 67.650547,156.52833 -6.856947,9.21907 0.767395,0.57051 6.856946,-9.21856 z" />
      <path
         id="path9207"
         style="opacity:1;fill:none;fill-opacity:1;stroke:#ffffff;stroke-width:3;stroke-miterlimit:4;stroke-dasharray:none;stroke-opacity:1"
         d="m 66.246872,140.35641 -9.811805,13.19144 0.797885,0.59325 9.811803,-13.19145 z" />
      <path
         id="path9311"
         style="opacity:1;fill:none;fill-opacity:1;stroke:#ffffff;stroke-width:3;stroke-miterlimit:4;stroke-dasharray:none;stroke-opacity:1"
         d="m 96.433483,138.74243 -9.811803,13.19145 -6.856946,9.21907 0.767394,0.57051 6.856947,-9.21856 0.03049,0.0222 9.811806,-13.19144 z" />
    </g>
  </g>
</svg>
