<?xml version="1.0" encoding="UTF-8" standalone="no"?>
<!-- Created with Inkscape (http://www.inkscape.org/) -->

<svg
   width="400"
   height="450"
   viewBox="0 0 105.83334 119.06251"
   version="1.1"
   id="svg5"
   sodipodi:docname="10n.svg"
   inkscape:version="1.1.1 (3bf5ae0d25, 2021-09-20)"
   xmlns:inkscape="http://www.inkscape.org/namespaces/inkscape"
   xmlns:sodipodi="http://sodipodi.sourceforge.net/DTD/sodipodi-0.dtd"
   xmlns="http://www.w3.org/2000/svg"
   xmlns:svg="http://www.w3.org/2000/svg">
  <sodipodi:namedview
     id="namedview7"
     pagecolor="#505050"
     bordercolor="#ffffff"
     borderopacity="1"
     inkscape:pageshadow="0"
     inkscape:pageopacity="0"
     inkscape:pagecheckerboard="1"
     inkscape:document-units="mm"
     showgrid="false"
     inkscape:zoom="0.8762222"
     inkscape:cx="142.08725"
     inkscape:cy="188.87903"
     inkscape:window-width="1530"
     inkscape:window-height="1011"
     inkscape:window-x="-7"
     inkscape:window-y="1"
     inkscape:window-maximized="0"
     inkscape:current-layer="layer1"
     inkscape:object-nodes="true"
     units="px"
     width="50px">
    <inkscape:grid
       type="xygrid"
       id="grid2013" />
  </sodipodi:namedview>
  <defs
     id="defs2" />
  <g
     inkscape:label="Lager 1"
     inkscape:groupmode="layer"
     id="layer1">
    <g
       inkscape:label="Lager 1"
       id="layer1-0"
       transform="translate(-31.363569,-52.396349)">
      <path
         id="rect8358-1"
         style="fill:none;fill-opacity:1;stroke:#ffffff;stroke-width:3;stroke-miterlimit:4;stroke-dasharray:none;stroke-opacity:1"
         d="m 107.02174,142.60521 -6.85694,9.21907 0.76739,0.57051 6.85695,-9.21856 z" />
      <path
         id="rect8477"
         style="opacity:1;fill:none;fill-opacity:1;stroke:#ffffff;stroke-width:3;stroke-miterlimit:4;stroke-dasharray:none;stroke-opacity:1"
         d="m 80.618059,139.22406 -9.811805,13.19144 0.797885,0.59325 9.811803,-13.19145 z" />
      <path
         id="path9037"
         style="fill:none;fill-opacity:1;stroke:#ffffff;stroke-width:3;stroke-miterlimit:4;stroke-dasharray:none;stroke-opacity:1"
         d="m 67.650547,156.52833 -6.856947,9.21907 0.767395,0.57051 6.856946,-9.21856 z" />
      <path
         id="path9207"
         style="opacity:1;fill:none;fill-opacity:1;stroke:#ffffff;stroke-width:3;stroke-miterlimit:4;stroke-dasharray:none;stroke-opacity:1"
         d="m 66.246872,140.35641 -9.811805,13.19144 0.797885,0.59325 9.811803,-13.19145 z" />
      <path
         id="path9311"
         style="opacity:1;fill:none;fill-opacity:1;stroke:#ffffff;stroke-width:3;stroke-miterlimit:4;stroke-dasharray:none;stroke-opacity:1"
         d="m 96.433483,138.74243 -9.811803,13.19145 -6.856946,9.21907 0.767394,0.57051 6.856947,-9.21856 0.03049,0.0222 9.811806,-13.19144 z" />
      <g
         inkscape:label="Lager 1"
         id="layer1-8">
        <path
           id="path4291-8"
           style="opacity:1;fill:none;fill-opacity:1;stroke:#ffffff;stroke-width:15.1181;stroke-miterlimit:4;stroke-dasharray:none;stroke-opacity:1"
           d="M 400.92969,304.41016 A 63.286057,59.043413 0 0 0 342.5332,340.73242 81.749993,74.999997 0 0 1 386,407 a 81.749993,74.999997 0 0 1 -0.11328,2.77148 55.999997,49.499998 0 0 1 22.65234,-4.26757 55.999997,49.499998 0 0 1 28.04688,6.66015 63.286057,59.043413 0 0 0 25.44336,-33.48437 50.022198,43.084418 0 0 1 -11.36524,1.24609 50.022198,43.084418 0 0 1 -50.02148,-43.08398 50.022198,43.084418 0 0 1 15.17969,-30.75196 63.286057,59.043413 0 0 0 -14.89258,-1.67968 z"
           transform="scale(0.26458333)" />
        <path
           id="path5208-2"
           style="fill:none;fill-opacity:1;stroke:#ffffff;stroke-width:4;stroke-miterlimit:4;stroke-dasharray:none;stroke-opacity:1"
           d="m 80.499481,87.841685 a 21.629686,19.843749 0 0 0 -21.616252,19.516635 14.816666,13.096875 0 0 0 -13.374893,13.02711 14.816666,13.096875 0 0 0 14.552083,13.08809 v 0.009 h 0.264583 47.736618 a 14.816666,13.096875 0 0 0 0.031,0.001 14.816666,13.096875 0 0 0 14.81667,-13.09687 14.816666,13.096875 0 0 0 -14.81667,-13.09688 14.816666,13.096875 0 0 0 -5.99343,1.12913 21.629686,19.843749 0 0 0 0.03,-0.73328 21.629686,19.843749 0 0 0 -21.629684,-19.843754 z" />
      </g>
    </g>
  </g>
</svg>
